<svg xmlns="http://www.w3.org/2000/svg" xmlns:xlink="http://www.w3.org/1999/xlink" version="1.1" x="0px" y="0px"
  viewBox="0 0 70 87.5" style="enable-background:new 0 0 70 70;" xml:space="preserve">
  <defs>
    <style type="text/css">
      * {
        fill: white;
      }
    </style>
  </defs>
  <g>
    <g>
      <path
        d="M62.25,11.79001H7.75c-2.62,0-4.75,2.13-4.75,4.75v36.91998c0,2.62,2.13,4.75,4.75,4.75h54.5c2.62,0,4.75-2.13,4.75-4.75    V16.54001C67,13.92001,64.87,11.79001,62.25,11.79001z M65.5,53.45999c0,1.79004-1.45996,3.25-3.25,3.25H7.75    c-1.78998,0-3.25-1.45996-3.25-3.25V16.54001c0-1.78998,1.46002-3.25,3.25-3.25h54.5c1.79004,0,3.25,1.46002,3.25,3.25V53.45999z" />
      <path
        d="M61.40002,48.70999H21.66998C21.32001,46.89999,19.72003,45.53,17.81,45.53c-1.89996,0-3.5,1.37-3.85999,3.17999H8.60004    c-0.41003,0-0.75,0.33002-0.75,0.75c0,0.41003,0.33997,0.75,0.75,0.75h5.34998c0.35999,1.80005,1.96002,3.18005,3.85999,3.18005    c1.91003,0,3.51001-1.38,3.85999-3.18005h39.73004c0.40997,0,0.75-0.33997,0.75-0.75    C62.15002,49.04001,61.81,48.70999,61.40002,48.70999z M17.81,51.89005c-1.34229,0-2.42999-1.10269-2.42999-2.43005    c0-1.32565,1.08558-2.42999,2.42999-2.42999c1.34218,0,2.42999,1.10255,2.42999,2.42999    C20.23999,50.78553,19.15467,51.89005,17.81,51.89005z" />
      <path
        d="M28.47003,39.25003c0.26001,0.14996,0.54999,0.21997,0.84998,0.21997c0.32001,0,0.65002-0.08997,0.94-0.26996    L40.78003,32.47c0.5-0.32001,0.81-0.87,0.81-1.46997c0-0.60004-0.31-1.15002-0.81-1.47003L30.25,22.79001    c-0.53998-0.33997-1.21997-0.34998-1.77997-0.03998C27.91003,23.05002,27.56,23.64005,27.56,24.28v13.44    C27.56,38.36002,27.91003,38.95004,28.47003,39.25003z M29.06,24.28c0-0.13,0.09003-0.20001,0.13-0.21997    c0.03003-0.02002,0.08002-0.04004,0.13-0.04004c0.03998,0,0.08002,0.01001,0.13,0.04004l10.52002,6.72998    c0.09998,0.07001,0.12,0.16003,0.12,0.21002s-0.02002,0.14001-0.12,0.20996l-10.52002,6.72003    C29.34003,38.00003,29.23999,37.97,29.19,37.94003C29.15002,37.91,29.06,37.85001,29.06,37.72V24.28z" />
    </g>
    <g>
      <g>
        <g>
          <path
            d="M55.15254,18.87277c0.04442,0.04442,0.06663,0.09781,0.06663,0.16016s-0.02221,0.11492-0.06663,0.15771      c-0.04422,0.04279-0.0976,0.06398-0.15995,0.06398H53.2437c-0.08538,0-0.15853-0.03016-0.21925-0.09129      c-0.06072-0.06072-0.09108-0.13367-0.09108-0.21925v-2.92602c0-0.06235,0.0214-0.11574,0.06398-0.16016      c0.04279-0.04401,0.09536-0.06643,0.15771-0.06643c0.06235,0,0.11574,0.02241,0.16016,0.06643      c0.04422,0.04442,0.06643,0.09781,0.06643,0.16016v2.78827h1.61094C55.05494,18.80635,55.10832,18.82835,55.15254,18.87277z" />
        </g>
      </g>
      <g>
        <g>
          <path
            d="M56.1526,15.85792c0.04422,0.04442,0.06643,0.09781,0.06643,0.16016v3.03931c0,0.06276-0.02221,0.11533-0.06643,0.15771      c-0.04442,0.04279-0.09781,0.06398-0.16016,0.06398s-0.11492-0.02119-0.15771-0.06398      c-0.04259-0.04238-0.06398-0.09495-0.06398-0.15771v-3.03931c0-0.06235,0.0214-0.11574,0.06398-0.16016      c0.04279-0.04401,0.09536-0.06643,0.15771-0.06643S56.10818,15.8139,56.1526,15.85792z" />
        </g>
      </g>
      <g>
        <path
          d="M59.56377,15.94431c0.01976-0.04605,0.0485-0.08313,0.08619-0.11085c0.0379-0.02771,0.07967-0.04198,0.12572-0.04198     c0.06887,0,0.12307,0.02078,0.1626,0.06154c0.03933,0.04116,0.05909,0.09618,0.05909,0.16505     c0,0.02975-0.00489,0.05746-0.01487,0.08395l-1.21666,2.95047c-0.06908,0.15119-0.17075,0.22658-0.30544,0.22658H58.352     c-0.13469,0-0.23636-0.07539-0.30544-0.22658l-1.21666-2.95047c-0.00999-0.02649-0.01488-0.0542-0.01488-0.08395     c0-0.06887,0.01977-0.12389,0.05909-0.16505c0.03953-0.04075,0.09373-0.06154,0.1626-0.06154     c0.04605,0,0.08782,0.01426,0.12572,0.04198c0.0377,0.02771,0.06643,0.0648,0.08619,0.11085l1.15757,2.88649L59.56377,15.94431z" />
      </g>
      <g>
        <path
          d="M62.94071,18.89763c0.04095,0.04075,0.06153,0.09088,0.06153,0.14997c0,0.05909-0.02058,0.1084-0.06153,0.14793     c-0.04116,0.03953-0.09108,0.05909-0.15017,0.05909h-1.97547c-0.06235,0-0.11492-0.02119-0.15771-0.06398     c-0.04259-0.04279-0.06398-0.09536-0.06398-0.15771v-2.99c0-0.06235,0.02139-0.11574,0.06398-0.16016     c0.04279-0.04442,0.09536-0.06643,0.15771-0.06643h1.97547c0.05909,0,0.10901,0.02038,0.15017,0.06154     c0.04095,0.04116,0.06153,0.09088,0.06153,0.14997c0,0.05909-0.02058,0.1084-0.06153,0.14793     c-0.04116,0.03953-0.09108,0.05909-0.15017,0.05909h-1.74889v1.0889h1.57141c0.05909,0,0.10921,0.02038,0.15038,0.06154     c0.04095,0.04075,0.06153,0.09088,0.06153,0.14997c0,0.05909-0.02058,0.1084-0.06153,0.14793     c-0.04116,0.03953-0.09129,0.05909-0.15038,0.05909h-1.57141v1.09379h1.74889     C62.84963,18.8361,62.89955,18.85647,62.94071,18.89763z" />
      </g>
    </g>
  </g>
</svg>