<svg xmlns="http://www.w3.org/2000/svg" xmlns:xlink="http://www.w3.org/1999/xlink" version="1.1" x="0px" y="0px"
  viewBox="0 0 100 125" enable-background="new 0 0 100 100" xml:space="preserve">
  <g>
    <path d="M39.168,84.168C39.169,90.15,44.018,95,50,95c5.98,0,10.831-4.85,10.832-10.832H39.168z" />
    <path
      d="M76.159,50.828V38.87c0-12.438-8.685-22.842-20.318-25.496c0.247-0.67,0.388-1.391,0.388-2.146C56.229,7.789,53.439,5,50,5   c-3.44,0-6.229,2.789-6.229,6.229c0,0.755,0.142,1.476,0.388,2.146C32.525,16.028,23.841,26.432,23.841,38.87v11.958   c0,10.286-5.939,19.181-14.573,23.454v5.944h81.465v-5.944C82.099,70.01,76.159,61.114,76.159,50.828z" />
  </g>
</svg>