<svg xmlns="http://www.w3.org/2000/svg" xmlns:xlink="http://www.w3.org/1999/xlink" width="30" height="25"
  viewBox="0 0 30 30">
  <defs>
    <style>
      .a {
        fill: #fcfcfc;
      }

      .b {
        clip-path: url(#a);
      }
    </style>
    <clipPath id="a">
      <rect class="a" width="30" height="25" />
    </clipPath>
  </defs>
  <g class="b">
    <g transform="translate(1.191 0)">
      <path class="a"
        d="M27.13,17.357V17.18a2.532,2.532,0,0,0-.422-1.4,2.99,2.99,0,0,0,2.452-2.937V2.986A2.989,2.989,0,0,0,26.175,0H3.959A2.989,2.989,0,0,0,.973,2.986v9.855a2.99,2.99,0,0,0,2.452,2.937A2.533,2.533,0,0,0,3,17.18v.181a2.765,2.765,0,0,0-2.023,2.66v5.423a2.747,2.747,0,0,0,2.146,2.677v1.858a.6.6,0,0,0,.6.6H6.591a.6.6,0,0,0,.6-.6V28.187h5.2a.6.6,0,1,0,0-1.194H3.724a1.551,1.551,0,0,1-1.549-1.549V20.021a1.568,1.568,0,0,1,1.566-1.566H26.408a1.568,1.568,0,0,1,1.566,1.566v5.423a1.551,1.551,0,0,1-1.549,1.549H17.758a.6.6,0,1,0,0,1.194h5.2v1.792a.6.6,0,0,0,.6.6h2.867a.6.6,0,0,0,.6-.6V28.121a2.748,2.748,0,0,0,2.146-2.677V20.021a2.765,2.765,0,0,0-2.038-2.664ZM5.994,28.187v1.194H4.322V28.187ZM4.2,17.26v-.08a1.355,1.355,0,0,1,1.354-1.354H9.294a1.355,1.355,0,0,1,1.354,1.354v.08ZM5.989,13.2v-.9a1.435,1.435,0,1,1,2.869,0v.9a1.435,1.435,0,1,1-2.869,0Zm7.644,0v-.9a1.435,1.435,0,1,1,2.869,0v.9a1.435,1.435,0,1,1-2.869,0ZM13.448,9.07V6.218a.19.19,0,0,1,.1-.17.2.2,0,0,1,.1-.027.192.192,0,0,1,.1.027l2.47,1.426a.2.2,0,0,1,0,.34L13.742,9.24a.2.2,0,0,1-.294-.17ZM21.277,13.2v-.9a1.435,1.435,0,1,1,2.869,0v.9a1.435,1.435,0,1,1-2.869,0ZM11.842,17.18A1.355,1.355,0,0,1,13.2,15.827h3.742a1.355,1.355,0,0,1,1.354,1.354v.08h-6.45Zm7.644,0a1.355,1.355,0,0,1,1.354-1.354h3.742a1.355,1.355,0,0,1,1.354,1.354v.08h-6.45ZM2.168,12.841V2.986A1.794,1.794,0,0,1,3.959,1.194H26.175a1.794,1.794,0,0,1,1.792,1.792v9.855a1.794,1.794,0,0,1-1.792,1.792H24.913A2.613,2.613,0,0,0,25.34,13.2v-.9a2.629,2.629,0,1,0-5.258,0v.9a2.613,2.613,0,0,0,.428,1.435H17.269A2.613,2.613,0,0,0,17.7,13.2v-.9a2.632,2.632,0,0,0-2.333-2.612l1.446-.835a1.391,1.391,0,0,0,0-2.408l-2.47-1.426a1.39,1.39,0,0,0-2.086,1.2V9.07a1.376,1.376,0,0,0,.7,1.2,1.419,1.419,0,0,0,.3.128,2.621,2.621,0,0,0-.807,1.893v.9a2.613,2.613,0,0,0,.428,1.435H9.625a2.613,2.613,0,0,0,.428-1.435v-.9a2.629,2.629,0,1,0-5.258,0v.9a2.613,2.613,0,0,0,.428,1.435H3.959a1.794,1.794,0,0,1-1.792-1.792Zm23.66,16.541H24.156V28.187h1.672Z"
        transform="translate(-0.973 0)" />
      <path class="a" d="M12.609,22.073a.6.6,0,1,0,.422.175A.6.6,0,0,0,12.609,22.073Z"
        transform="translate(1.489 4.923)" />
    </g>
  </g>
</svg>