<svg xmlns="http://www.w3.org/2000/svg" xmlns:xlink="http://www.w3.org/1999/xlink" xml:space="preserve"
  style="shape-rendering:geometricPrecision;text-rendering:geometricPrecision;image-rendering:optimizeQuality;"
  viewBox="0 0 1.70666 2.133325" x="0px" y="0px" fill-rule="evenodd" clip-rule="evenodd">
  <defs>
    <style type="text/css">
      .fil0 {
        fill: white;
      }
    </style>
  </defs>
  <g>
    <path class="fil0"
      d="M1.389 1.39993l-1.12883 0c-0.0958898,0 -0.173846,-0.0779606 -0.173846,-0.173846l0 -0.783614c0,-0.0958858 0.0779567,-0.173846 0.173846,-0.173846l1.12883 -5.11811e-005c0.0958898,0 0.173846,0.0779606 0.173846,0.173846l0 0.28635c0,0.0105787 -0.00861024,0.019189 -0.019185,0.019189 -0.0105787,0 -0.019189,-0.00861024 -0.019189,-0.019189l0 -0.28635c0,-0.0747362 -0.0607874,-0.13552 -0.13552,-0.13552l-1.12879 5.11811e-005c-0.0747362,0 -0.135524,0.0607835 -0.135524,0.13552l0 0.783614c0,0.0747362 0.0607874,0.13552 0.135524,0.13552l1.12883 -5.11811e-005c0.0747362,0 0.135524,-0.0607835 0.135524,-0.13552l0 -0.28635c0,-0.0105748 0.00861024,-0.019189 0.019185,-0.019189 0.0105787,0 0.019189,0.00861417 0.019189,0.019189l0 0.28635c-5.11811e-005,0.0958858 -0.0780079,0.173898 -0.173898,0.173898z" />
    <path class="fil0"
      d="M1.60122 0.958823l-0.239768 0c-0.0687402,0 -0.124642,-0.0559016 -0.124642,-0.124646 0,-0.0687402 0.0559016,-0.124642 0.124642,-0.124642l0.239768 -5.11811e-005c0.0105787,0 0.019189,0.00861417 0.019189,0.019189l0 0.210961c-5.11811e-005,0.0106772 -0.00861024,0.019189 -0.019189,0.019189zm-0.239768 -0.210862c-0.0475906,0 -0.0863189,0.0387283 -0.0863189,0.0863189 0,0.0475906 0.0387283,0.0863189 0.0863189,0.0863189l0.220583 -5.11811e-005 0 -0.172587 -0.220583 0z" />
    <path class="fil0"
      d="M1.54366 1.18897l-1.4382 0c-0.0105787,0 -0.019189,-0.00861024 -0.019189,-0.019185l0 -0.709484c0,-0.0105748 0.00861024,-0.019185 0.019189,-0.019185l1.4382 0c0.0105748,0 0.019185,0.00861024 0.019185,0.019185 0,0.0105748 -0.00861024,0.019189 -0.019185,0.019189l-1.41902 -5.11811e-005 0 0.671157 1.41902 0c0.0105748,0 0.019185,0.00861417 0.019185,0.019189 0,0.0105748 -0.00861024,0.019185 -0.019185,0.019185z" />
    <path class="fil0"
      d="M0.335602 1.18897c-0.0105748,0 -0.019185,-0.00861024 -0.019185,-0.019185l0 -0.709484c0,-0.0105748 0.00861024,-0.019185 0.019185,-0.019185 0.0105787,0 0.019189,0.00861024 0.019189,0.019185l0 0.709484c0,0.0105748 -0.00861024,0.019185 -0.019189,0.019185z" />
    <path class="fil0"
      d="M0.450579 1.18897c-0.0105748,0 -0.019189,-0.00861024 -0.019189,-0.019185l0 -0.709484c0,-0.0105748 0.00861417,-0.019185 0.019189,-0.019185 0.0105748,0 0.019185,0.00861024 0.019185,0.019185l0 0.709484c0,0.0105748 -0.00850787,0.019185 -0.019185,0.019185z" />
    <path class="fil0"
      d="M1.4094 0.191776c-0.052878,0 -0.0958858,-0.0430079 -0.0958858,-0.0958858 0,-0.052878 0.0430079,-0.0958858 0.0958858,-0.0958858 0.052878,0 0.0958858,0.0430079 0.0958858,0.0958858 0,0.0529803 -0.0430079,0.0958858 -0.0958858,0.0958858zm0 -0.153346c-0.0317283,0 -0.0575118,0.0258346 -0.0575118,0.0575118 0,0.0317244 0.0258346,0.0575118 0.0575118,0.0575118 0.0316772,0 0.0575118,-0.0258346 0.0575118,-0.0575118 5.11811e-005,-0.0316772 -0.0257835,-0.0575118 -0.0575118,-0.0575118z" />
    <path class="fil0"
      d="M0.220528 1.70668c-0.0634528,0 -0.115071,-0.0516181 -0.115071,-0.115075 0,-0.0634528 0.0516181,-0.115071 0.115071,-0.115071 0.0634567,0 0.115075,0.0516181 0.115075,0.115071 0,0.0634567 -0.0516181,0.115075 -0.115075,0.115075zm0 -0.191673c-0.0422992,0 -0.0766969,0.0343976 -0.0766969,0.0767008 0,0.0423031 0.0343976,0.0767008 0.0766969,0.0767008 0.0423031,0 0.0767008,-0.0343976 0.0767008,-0.0767008 0,-0.0423031 -0.0343976,-0.0767008 -0.0767008,-0.0767008z" />
  </g>
</svg>